<svg xmlns="http://www.w3.org/2000/svg" width="142" height="137" viewBox="0 0 142 137">
    <g fill="none" fill-rule="nonzero" opacity=".421">
        <path fill="#939EAF" d="M117 46.088v51.846c0 6.677-5.38 12.09-12.014 12.09H53.625L29.25 137v-26.976H12.014C5.38 110.024 0 104.61 0 97.936V46.09C0 39.412 5.38 34 12.014 34h92.97C111.62 34 117 39.412 117 46.088z"/>
        <path fill="#C1C7D0" d="M129.986 0H37.014C30.38 0 25 5.41 25 12.086v22.237h80.61c6.635 0 12.015 5.41 12.015 12.086V76h12.36C136.62 76 142 70.59 142 63.914V12.086C142 5.411 136.62 0 129.986 0z"/>
        <path fill="#FFF" d="M61.563 62H27.437C26.09 62 25 60.88 25 59.5s1.09-2.5 2.438-2.5h34.124C62.91 57 64 58.12 64 59.5S62.91 62 61.562 62zM93.552 76H27.448C26.094 76 25 74.88 25 73.5s1.094-2.5 2.448-2.5h66.104C94.906 71 96 72.12 96 73.5S94.906 76 93.552 76zM93.552 91H27.448C26.094 91 25 89.88 25 88.5s1.094-2.5 2.448-2.5h66.104C94.906 86 96 87.12 96 88.5S94.906 91 93.552 91z"/>
    </g>
</svg>
