<svg xmlns="http://www.w3.org/2000/svg" width="146" height="42" viewBox="0 0 146 42">
    <g fill="none" fill-rule="evenodd">
        <g fill-rule="nonzero">
            <path fill="#FF8A24" d="M24.557 9.924L14.178 20.562c-.38.39-.11 1.057.427 1.057h3.975l-3.351 9.815c-.212.621.542 1.107.996.642l10.38-10.639c.38-.39.11-1.056-.427-1.056h-3.976l3.352-9.815c.212-.621-.543-1.107-.997-.642z"/>
            <path fill="#B6E462" d="M9.62 10.397a15.246 15.246 0 0 1 5.188-3.652 15.015 15.015 0 0 1 4.696-1.153 1.295 1.295 0 0 0 1.192-1.294v-3c0-.746-.622-1.343-1.359-1.295a20.38 20.38 0 0 0-6.657 1.583 20.757 20.757 0 0 0-7.219 5.133A20.994 20.994 0 0 0 0 20.195l5.512.5a15.4 15.4 0 0 1 4.109-10.298z"/>
            <path fill="#58AB23" d="M36.533 6.924l1.472-1.47a.699.699 0 0 0-.495-1.193H30.8a.7.7 0 0 0-.7.699v6.699a.7.7 0 0 0 1.195.494l1.271-1.27A15.3 15.3 0 0 1 36.4 20.928c.058 8.49-6.868 15.467-15.372 15.482-8.518.015-15.515-6.874-15.515-15.375v-.345L0 20.177c-.013.383-.004.912.004 1.3C.24 32.858 9.624 42.013 21.025 42 32.612 41.986 42 32.605 42 21.034a20.87 20.87 0 0 0-5.467-14.11z"/>
        </g>
        <text font-family="AvenirNext-Bold, Avenir Next" font-size="16" font-weight="bold">
            <tspan x="52" y="29" fill="#58AB23">POWER</tspan> <tspan x="112.576" y="29" fill="#FF8A24">CAR</tspan>
        </text>
    </g>
</svg>
